<svg xmlns="http://www.w3.org/2000/svg" viewBox="0 0 64 64" width="64" height="64">
  <defs>
    <linearGradient id="mg" x1="0%" y1="0%" x2="100%" y2="100%">
      <stop offset="0%" stop-color="#c084fc"/>
      <stop offset="100%" stop-color="#7c3aed"/>
    </linearGradient>
    <linearGradient id="pg" x1="0%" y1="0%" x2="100%" y2="100%">
      <stop offset="0%" stop-color="#fdf2f8"/>
      <stop offset="100%" stop-color="#f9a8d4"/>
    </linearGradient>
    <radialGradient id="bg" cx="50%" cy="40%" r="60%">
      <stop offset="0%" stop-color="#2e1065"/>
      <stop offset="100%" stop-color="#0f0524"/>
    </radialGradient>
  </defs>
  
  <!-- Background -->
  <rect width="64" height="64" rx="14" fill="url(#bg)"/>
  
  <!-- M -->
  <g transform="translate(10, 8) scale(0.75)">
    <path d="M8 48 L8 12 C8 8, 12 6, 16 6 L20 6" 
          fill="none" stroke="url(#mg)" stroke-width="5" stroke-linecap="round"/>
    <path d="M12 10 L22 28" fill="none" stroke="url(#mg)" stroke-width="5" stroke-linecap="round"/>
    <path d="M28 28 L38 10" fill="none" stroke="url(#mg)" stroke-width="5" stroke-linecap="round"/>
    <path d="M36 6 L40 6 C44 6, 48 8, 48 12 L48 48" 
          fill="none" stroke="url(#mg)" stroke-width="5" stroke-linecap="round"/>
  </g>
  
  <!-- Cherry blossom -->
  <g transform="translate(50, 12) scale(0.35)">
    <ellipse cx="0" cy="-10" rx="5" ry="12" fill="url(#pg)" opacity="0.9"/>
    <ellipse cx="0" cy="-10" rx="5" ry="12" fill="url(#pg)" opacity="0.85" transform="rotate(72)"/>
    <ellipse cx="0" cy="-10" rx="5" ry="12" fill="url(#pg)" opacity="0.8" transform="rotate(144)"/>
    <ellipse cx="0" cy="-10" rx="5" ry="12" fill="url(#pg)" opacity="0.8" transform="rotate(216)"/>
    <ellipse cx="0" cy="-10" rx="5" ry="12" fill="url(#pg)" opacity="0.75" transform="rotate(288)"/>
    <circle cx="0" cy="0" r="4" fill="#fbbf24"/>
  </g>
</svg>